<svg width="180" height="180" viewBox="0 0 180 180" fill="none" xmlns="http://www.w3.org/2000/svg">
<g clip-path="url(#clip0_5279_5020)">
<path d="M87.4799 112.012C80.1674 108.442 75.9074 104.182 75.7949 100.335C75.7424 98.655 76.5299 97.2375 77.9549 96.435C80.0474 95.2575 83.5499 96.24 87.5774 97.545C88.1474 97.7325 88.6574 97.8975 89.0549 98.01C91.5824 98.73 94.3424 98.7525 96.4424 98.67V85.335C93.1424 85.3875 88.5074 86.145 85.3499 86.655C84.1049 86.8575 82.9724 87.045 82.0499 87.1725C80.3774 87.405 78.5999 86.4075 77.4074 84.5775C76.1774 82.695 75.5024 79.6575 77.2799 76.785C79.1699 73.7325 84.0899 70.5225 96.4424 70.7475V68.175C94.9799 67.47 93.5249 66.4725 92.6099 64.9125C91.5449 63.0975 91.3274 60.0225 93.0299 57.9C93.7049 57.06 94.7699 56.2425 96.4424 55.8975V33.75L57.7349 24V155.085L96.4424 139.56V114.78C94.6574 114.322 93.0524 113.91 91.8374 113.595C90.2624 113.19 88.7999 112.657 87.4799 112.02V112.012Z" fill="#AAEEEF"/>
<path d="M75.7873 97.1101C77.6223 97.1101 79.1098 94.2727 79.1098 90.7726C79.1098 87.2725 77.6223 84.4351 75.7873 84.4351C73.9524 84.4351 72.4648 87.2725 72.4648 90.7726C72.4648 94.2727 73.9524 97.1101 75.7873 97.1101Z" stroke="#00C5CA" stroke-width="3" stroke-linecap="round" stroke-linejoin="round"/>
<path d="M57.735 36.5698H25.125V139.65" stroke="#AAEEEF" stroke-width="9" stroke-linejoin="round"/>
<path d="M93.1048 135.045L63.0298 146.962V28.875L93.1048 36.6375" stroke="#00C5CA" stroke-width="2.77" stroke-linecap="round" stroke-linejoin="round"/>
<path d="M72.0298 90.8174H68.2573" stroke="#00C5CA" stroke-width="3" stroke-linecap="round" stroke-linejoin="round"/>
<path d="M136.237 79.8598C131.895 66.4648 126.645 54.1198 117.652 54.3448C114.87 54.4198 113.512 55.6648 112.86 56.6923C112.095 57.8923 111.937 59.3398 112.035 60.6823C109.777 59.0923 106.957 57.8323 103.102 56.5948C100.2 55.6648 98.0473 55.5673 96.4498 55.8973C94.7848 56.2423 93.7123 57.0598 93.0373 57.8998C91.3348 60.0223 91.5523 63.0973 92.6173 64.9123C93.5323 66.4798 94.9798 67.4773 96.4498 68.1748C97.1323 68.4973 97.8148 68.7673 98.4448 68.9923C100.215 69.6073 101.602 70.3573 102.69 71.1073C100.425 70.8973 98.3548 70.7848 96.4498 70.7473C84.0973 70.5223 79.1773 73.7323 77.2873 76.7848C75.5098 79.6573 76.1848 82.6948 77.4148 84.5773C78.6073 86.4148 80.3848 87.4048 82.0573 87.1723C82.9798 87.0448 84.1123 86.8573 85.3573 86.6548C88.5148 86.1373 93.1573 85.3873 96.4498 85.3348C97.8823 85.3123 99.0598 85.4173 99.7498 85.7398C102.742 87.1198 103.537 90.7423 103.012 93.5173C102.57 95.8648 101.04 98.4298 98.0923 98.5873H97.9348C97.4998 98.6173 96.9898 98.6473 96.4423 98.6698C94.3423 98.7523 91.5823 98.7298 89.0548 98.0098C88.6573 97.8973 88.1473 97.7323 87.5773 97.5448C83.5498 96.2398 80.0473 95.2498 77.9548 96.4348C76.5373 97.2373 75.7498 98.6548 75.7948 100.335C75.9073 104.19 80.1673 108.442 87.4798 112.012C88.7998 112.657 90.2623 113.19 91.8373 113.587C93.0523 113.902 94.6573 114.315 96.4423 114.772C102.322 116.287 110.13 118.297 112.155 118.86C115.117 119.677 129.09 129.037 135.465 135.81L137.647 133.755C131.085 126.787 116.685 117 112.95 115.972C110.812 115.38 102.397 113.212 96.4348 111.675C94.9498 111.292 93.6223 110.955 92.5798 110.685C91.2073 110.332 89.9323 109.875 88.7923 109.32C81.5023 105.757 78.8473 102.21 78.7873 100.252C78.7723 99.6973 78.9748 99.2998 79.4173 99.0523C80.5348 98.4223 84.9748 99.8623 86.6398 100.402C87.2548 100.597 87.7948 100.777 88.2223 100.897C91.1248 101.722 94.1398 101.76 96.4348 101.677C97.0423 101.655 97.6048 101.625 98.0923 101.602H98.2498C102.097 101.377 105.12 98.4298 105.952 94.0873C106.695 90.1948 105.457 85.0723 100.995 83.0248C99.8998 82.5223 98.3398 82.3348 96.4348 82.3573C93.3148 82.3948 89.2798 82.9948 84.8623 83.7148C83.6398 83.9173 82.5373 84.0973 81.6298 84.2173C81.2323 84.2773 80.4898 83.8498 79.9123 82.9573C79.1848 81.8473 78.7873 80.0548 79.8223 78.3823C80.8198 76.7623 84.3523 73.5298 96.4348 73.7623C98.8423 73.8073 101.587 73.9873 104.722 74.3473C105.487 74.5273 112.14 76.2673 112.372 82.5373L115.372 82.4248C115.17 77.0923 111.48 73.9498 108.232 72.4123C107.407 71.1898 104.85 68.0548 99.4198 66.1648C98.3923 65.8123 97.3123 65.3698 96.4423 64.7323C95.9398 64.3648 95.5048 63.9298 95.1973 63.4048C94.7173 62.5798 94.5073 60.8623 95.3698 59.7823C95.6323 59.4523 95.9998 59.1973 96.4423 59.0248C97.7173 58.5148 99.6898 58.6573 102.18 59.4598C111.472 62.4448 113.887 65.2273 117.907 73.9348L120.63 72.6748C118.875 68.8798 117.337 66.0673 115.447 63.8323L115.815 63.6748C115.41 62.7373 114.472 59.7523 115.395 58.3123C115.537 58.0873 115.972 57.4048 117.742 57.3598C117.802 57.3598 117.855 57.3598 117.915 57.3598C123.352 57.3598 128.137 64.6048 133.387 80.8048C138.27 95.8498 150.457 108.39 156.705 110.415L157.627 107.557C152.917 106.035 141.105 94.8823 136.237 79.8748V79.8598Z" fill="#0B3EE3"/>
</g>
<defs>
<clipPath id="clip0_5279_5020">
<rect width="135.878" height="131.085" fill="white" transform="translate(21.75 24)"/>
</clipPath>
</defs>
</svg>
