<svg viewBox="0 0 240 240" fill="none" xmlns="http://www.w3.org/2000/svg"><g clip-path="url(#clip0_14631_22244)"><path d="M130.979 101.86L128.119 98.24C132.119 95.08 141.309 90.82 147.519 97.35L144.169 100.53C142.189 98.45 139.569 97.99 136.149 99.13C133.269 100.09 131.009 101.85 130.989 101.87L130.979 101.86Z" fill="#AAEEEF"/><path d="M179.789 133.55C177.879 133.55 175.999 133.26 174.139 132.67C162.069 128.86 155.939 113.91 155.689 113.28L159.969 111.56C160.019 111.7 165.559 125.13 175.549 128.28C180.149 129.73 185.129 128.74 190.349 125.34L192.869 129.21C188.429 132.1 184.049 133.55 179.789 133.55Z" fill="#AAEEEF"/><path d="M115.66 122.327L103.946 98.9034L114.365 93.6925C119.964 90.8924 126.78 93.1637 129.58 98.7626L131.15 101.902C133.95 107.501 131.679 114.316 126.08 117.117L115.66 122.327Z" fill="#AAEEEF"/><path d="M104.31 122.36C103.04 122.36 101.82 121.66 101.21 120.44C100.35 118.73 101.05 116.65 102.76 115.79L113.48 110.43C115.19 109.57 117.27 110.27 118.13 111.98C118.99 113.69 118.29 115.77 116.58 116.63L105.86 121.99C105.36 122.24 104.83 122.36 104.31 122.36Z" fill="#AAEEEF"/><path d="M99.6204 112.98C98.3504 112.98 97.1304 112.28 96.5204 111.06C95.6604 109.35 96.3604 107.27 98.0704 106.41L108.79 101.05C110.5 100.19 112.58 100.89 113.44 102.6C114.3 104.31 113.6 106.39 111.89 107.25L101.17 112.61C100.67 112.86 100.14 112.98 99.6204 112.98Z" fill="#AAEEEF"/><path d="M136.539 119.9C133.759 119.9 131.779 119.25 130.499 117.95C129.389 116.82 128.329 114.69 129.619 110.96C130.789 107.56 133.409 104.68 136.799 103.04C140.689 101.16 143.719 99.16 145.799 97.1C148.809 94.1 148.279 90.35 146.899 88.05C145.479 85.68 142.329 83.36 138.149 84.64C132.389 86.39 127.829 89.21 124.579 93.01C123.179 94.66 120.849 95.24 118.509 94.53C115.439 93.6 113.189 90.83 112.779 87.48C112.299 83.53 114.029 75.4 130.929 65.43C134.949 63.14 144.219 60.63 150.779 67.47L147.889 70.24C141.879 63.96 133.299 68.69 132.929 68.89C117.459 78.02 116.459 84.59 116.749 87C117.009 89.16 118.479 90.35 119.659 90.7C119.959 90.79 120.999 91.04 121.529 90.41C125.279 86.02 130.469 82.78 136.979 80.81C142.969 78.98 147.999 82.1 150.329 86C153.119 90.66 152.449 96.13 148.619 99.94C146.219 102.32 142.829 104.58 138.539 106.65C136.099 107.83 134.219 109.88 133.399 112.27C133.119 113.08 132.739 114.54 133.349 115.16C133.749 115.56 136.369 117.37 148.909 113.29C157.599 110.44 174.879 104.64 178.099 103.06C182.849 100.72 204.009 98.06 217.819 98.06V102.06C204.269 102.06 183.629 104.8 179.869 106.65C175.609 108.75 151.199 116.75 150.159 117.09C144.369 118.97 139.889 119.91 136.549 119.91L136.539 119.9Z" fill="#0B3EE3"/><path d="M115.52 70.64C114.55 70.64 113.56 70.51 112.58 70.19C109.91 69.32 106.97 66.45 106.79 62.83C106.65 60.02 108.07 55.96 115.66 52.61C128.77 46.82 134.78 47.6 147.37 53.09L145.77 56.76C134.05 51.65 129.18 51.01 117.28 56.27C112.98 58.17 110.67 60.43 110.79 62.63C110.88 64.47 112.61 66 113.83 66.39C115.94 67.08 118.38 66.27 120.48 65.4C129.23 61.77 135.3 63.94 135.56 64.04L134.19 67.8C133.99 67.73 129.22 66.12 122.02 69.1C120.16 69.87 117.9 70.65 115.54 70.65L115.52 70.64Z" fill="#0B3EE3"/><path d="M208.921 59.41C197.711 59.41 181.591 58.28 167.281 49.89C147.491 38.29 136.281 35.36 130.921 40.4C129.231 41.99 129.391 43.12 129.441 43.49C129.781 45.94 133.501 48.39 134.781 49.05L132.951 52.6C132.261 52.24 126.181 48.98 125.491 44.05C125.261 42.43 125.551 39.98 128.191 37.49C136.921 29.28 153.111 36.95 169.311 46.45C185.631 56.02 204.841 55.57 215.161 55.33C216.121 55.31 216.991 55.29 217.791 55.28L217.841 59.28C217.051 59.29 216.191 59.31 215.251 59.33C213.401 59.37 211.271 59.42 208.921 59.42V59.41Z" fill="#0B3EE3"/><path d="M101.01 176.67L73.8498 204.26C69.3898 208.79 61.7498 207.29 59.3298 201.41L22.6698 112.25C21.3198 108.96 22.0598 105.19 24.5498 102.66L51.7098 75.07C56.1698 70.54 63.8098 72.04 66.2298 77.92L102.89 167.07C104.24 170.36 103.5 174.13 101.01 176.66V176.67Z" fill="#AAEEEF"/><path d="M69.0297 178.53C68.4597 178.53 67.8697 178.47 67.2797 178.36C63.6697 177.65 60.5197 174.99 59.0497 171.42L41.1897 127.98C39.7597 124.51 40.2797 120.92 42.5397 118.62L54.7898 106.18C56.5697 104.37 59.1597 103.64 61.9097 104.18C65.5197 104.89 68.6697 107.55 70.1397 111.12L87.9997 154.56C89.4297 158.03 88.9097 161.62 86.6497 163.91L74.3997 176.35C72.9997 177.77 71.1097 178.52 69.0297 178.52V178.53ZM60.1497 107.01C59.1497 107.01 57.9297 107.27 56.9297 108.29L44.6797 120.73C43.2797 122.15 42.9997 124.5 43.9697 126.84L61.8298 170.28C62.8997 172.89 65.2697 174.91 67.8597 175.41C68.8797 175.61 70.8097 175.73 72.2597 174.25L84.5097 161.81C85.9097 160.38 86.1898 158.04 85.2197 155.7L67.3597 112.26C66.2897 109.65 63.9198 107.63 61.3298 107.13C61.0098 107.07 60.5998 107.01 60.1497 107.01Z" fill="#00C5CA"/><path d="M65.9624 134.568C66.2798 131.153 64.6157 128.206 62.2456 127.986C59.8755 127.766 57.6968 130.356 57.3794 133.771C57.062 137.186 58.7261 140.133 61.0962 140.353C63.4663 140.573 65.645 137.983 65.9624 134.568Z" fill="#00C5CA"/><path d="M72.1401 149.596C72.4575 146.181 70.7935 143.234 68.4233 143.014C66.0532 142.793 63.8745 145.383 63.5571 148.798C63.2397 152.213 64.9038 155.16 67.2739 155.38C69.6441 155.601 71.8227 153.011 72.1401 149.596Z" fill="#00C5CA"/><path d="M117.92 117.63C117.46 117.63 117.03 117.38 116.8 116.95C116.48 116.33 116.72 115.57 117.34 115.25L124.13 111.73C124.62 111.26 127.06 108.54 124.71 103.45C124.42 102.82 124.69 102.07 125.33 101.78C125.96 101.49 126.71 101.76 127 102.4C130.38 109.73 125.85 113.58 125.65 113.74L125.43 113.89L118.5 117.48C118.32 117.58 118.12 117.62 117.92 117.62V117.63Z" fill="#00C5CA"/></g><defs><clipPath id="clip0_14631_22244"><rect width="195.84" height="172.91" fill="white" transform="translate(22 34)"/></clipPath></defs></svg>