<svg viewBox="0 0 60 64" fill="none" xmlns="http://www.w3.org/2000/svg"><g clip-path="url(#clip0_8331_18520)"><path d="M48.1312 33.83C48.0222 34.1171 48.143 34.4453 48.4112 34.5908C48.9278 34.8728 60.9738 41.3664 66.8286 39.2206C66.9013 39.194 66.9741 39.1673 67.0447 39.1348L66.5677 37.9914C64.4417 38.8727 60.7542 38.3918 55.8991 36.5955C52.9939 35.5214 50.4667 34.2626 49.4644 33.7467C50.2369 31.2424 49.8346 28.6775 49.5082 27.324C49.2659 26.3154 48.3316 25.6164 47.2864 25.6567C46.4625 25.6884 45.7365 26.1654 45.3901 26.9021C44.8452 28.0509 44.1308 29.9771 43.7887 30.923C42.6951 30.4999 40.0099 29.1442 35.1373 26.3491C34.3259 25.8852 33.4065 25.6751 32.4731 25.7502C31.3107 25.8401 30.3611 26.7055 30.1664 27.8545C30.0416 28.5923 30.2408 29.34 30.7199 29.9059C31.9947 31.4226 34.8584 33.4611 36.0422 34.2729C35.6208 34.9942 35.3385 36.004 35.3833 37.4179C35.405 38.069 35.5018 38.7091 35.6641 39.3385C35.6641 39.3385 35.6604 39.3464 35.6615 39.3493L35.6673 39.3472C36.2872 41.7136 37.9045 43.9188 40.5043 45.9222C49.7155 53.0132 59.5641 53.5627 59.9805 53.5815L60.0412 52.3464C59.9439 52.3425 50.156 51.7872 41.2632 44.9421C39.0109 43.2102 37.5724 41.3382 36.9585 39.365C37.3052 38.3778 38.1909 36.5668 39.5061 36.3089C40.599 36.0929 41.9615 36.9777 43.4486 38.8649C43.6903 39.1717 43.7531 39.5936 43.6142 39.9609C43.4871 40.2975 43.2193 40.5209 42.8799 40.586C41.8587 40.7724 40.7824 40.3693 39.6836 39.3846L38.8573 40.307C40.6002 41.8664 42.1288 41.9818 43.106 41.8016C43.2299 41.7792 43.3524 41.7442 43.4688 41.7016C44.0653 41.4829 44.5406 41.0155 44.7748 40.3957C45.0383 39.7027 44.9518 38.9203 44.5624 38.3018C45.3312 36.649 45.1087 34.9674 43.9242 33.7142C42.3568 32.0575 39.7101 31.7126 37.4878 32.8797C37.2744 32.9908 37.0543 33.1374 36.8401 33.3181C35.7624 32.5794 32.8672 30.536 31.6687 29.1099C31.4264 28.8197 31.3256 28.4381 31.3877 28.0594C31.4886 27.4721 31.9724 27.0279 32.5692 26.9805C33.2492 26.9257 33.9226 27.0777 34.5165 27.417C38.2315 29.5521 42.9082 32.1289 44.087 32.2901C44.3796 32.3312 44.6598 32.1593 44.7563 31.8833C44.7652 31.8537 45.8126 28.9026 46.5084 27.4282C46.6596 27.1124 46.9742 26.9081 47.3317 26.8925C47.7871 26.8738 48.1954 27.1757 48.2999 27.612C48.6142 28.9238 49.0122 31.477 48.1214 33.8303L48.1312 33.83ZM38.0721 33.9739C40.002 32.9634 42.0269 33.5032 43.0309 34.5623C43.723 35.294 43.9343 36.2184 43.6639 37.1975C42.1216 35.5283 40.6447 34.8173 39.2691 35.0907C38.072 35.3284 37.2089 36.2676 36.6292 37.2051C36.6103 35.5741 37.0952 34.4868 38.0721 33.9739Z" fill="#0B3EE3"/><path d="M10.3413 24.7917C10.2088 24.7917 10.0338 24.8237 9.86152 24.8877C8.90196 25.2314 7.93976 25.5751 6.9802 25.9188C6.64886 26.0387 6.33873 25.9588 6.10282 25.695C5.37387 24.8823 4.75626 23.9951 4.24997 23.0279C3.91333 22.3831 3.62971 21.7144 3.4097 21.0189C3.31162 20.7099 3.38054 20.4301 3.62441 20.217C4.10949 19.7907 4.60517 19.3777 5.0982 18.9594C5.42159 18.6823 5.75292 18.4132 6.06836 18.1281C6.71248 17.5472 6.72043 16.4948 6.07631 15.9086C5.69991 15.5676 5.30496 15.2452 4.91795 14.9175C4.48589 14.5498 4.04852 14.1874 3.62441 13.8117C3.38054 13.5959 3.31162 13.3161 3.41235 13.0044C3.64826 12.269 3.95309 11.5603 4.31889 10.8782C4.81457 9.951 5.41628 9.09839 6.11872 8.32038C6.34668 8.06727 6.63296 7.99266 6.95104 8.10457C7.72505 8.37634 8.49641 8.6561 9.27041 8.93053C9.49307 9.01046 9.71308 9.09573 9.93839 9.165C10.8264 9.4421 11.7303 8.89323 11.9026 7.97667C12.051 7.18268 12.1915 6.38869 12.3373 5.5947C12.377 5.37089 12.4168 5.14974 12.4592 4.92859C12.5255 4.59021 12.7587 4.3664 13.0954 4.29713C13.7846 4.15858 14.4764 4.06799 15.1788 4.03602C15.8813 4.00404 16.5811 4.0227 17.2755 4.11329C17.6572 4.16391 18.0363 4.22785 18.4153 4.29713C18.805 4.36907 19.0144 4.59288 19.086 4.98188C19.2556 5.92508 19.4279 6.86562 19.6029 7.80615C19.6347 7.97668 19.6665 8.14986 19.7354 8.30706C19.9925 8.88257 20.4431 9.19164 21.0714 9.23427C21.2808 9.2476 21.4822 9.2103 21.6784 9.13836C22.6379 8.79465 23.5948 8.45094 24.5544 8.1099C24.8857 7.99266 25.1932 8.07259 25.4291 8.33637C26.2243 9.22362 26.887 10.2015 27.4145 11.2699C27.6928 11.8321 27.9287 12.4102 28.1196 13.0071C28.2177 13.3161 28.1514 13.5959 27.9075 13.8091C27.4198 14.2354 26.9241 14.651 26.4311 15.0693C26.1077 15.3464 25.7764 15.6155 25.4609 15.9006C24.8195 16.4815 24.8142 17.5339 25.453 18.1174C25.8294 18.4585 26.2243 18.7808 26.6113 19.1086C27.0434 19.4789 27.4834 19.8413 27.9102 20.217C28.1514 20.4301 28.223 20.7072 28.1222 21.0136C27.6637 22.4284 26.9851 23.7286 26.0785 24.9036C25.8665 25.1781 25.6438 25.4419 25.4159 25.703C25.1906 25.9588 24.9043 26.0334 24.5862 25.9241C23.9156 25.6923 23.2502 25.4472 22.5823 25.2101C22.2483 25.0902 21.9196 24.9649 21.5829 24.8584C20.8089 24.6079 19.9422 25.0475 19.6956 25.8282C19.6188 26.0733 19.5817 26.3318 19.5366 26.5849C19.3802 27.4268 19.2291 28.2688 19.0754 29.1107C19.0171 29.4278 18.7811 29.6623 18.4551 29.7289C17.7739 29.8674 17.0873 29.958 16.3902 29.9927C15.6374 30.0273 14.8873 30.0033 14.1424 29.9021C13.7872 29.8541 13.4347 29.7928 13.0848 29.7289C12.7534 29.6676 12.5228 29.4358 12.4619 29.1028C12.3108 28.2901 12.165 27.4775 12.0165 26.6648C11.9768 26.441 11.9397 26.2145 11.892 25.9907C11.7382 25.2873 11.118 24.7917 10.3492 24.7917H10.3413ZM11.9874 17.009C11.9874 19.0979 13.6706 20.8058 15.7381 20.8085C17.8401 20.8111 19.5313 19.1219 19.5339 17.017C19.5366 14.9308 17.8454 13.2256 15.7699 13.2256C13.6812 13.2256 11.9874 14.9175 11.9874 17.0117V17.009Z" fill="#AAEEEF"/><path d="M18.0038 5.196C17.9223 5.15057 15.9439 4.11633 13.5394 4.99022C13.2843 5.08376 13.0948 5.30023 13.0317 5.57014L12.3109 8.63277L12.2241 8.97751C12.1294 9.357 11.8926 9.67235 11.5611 9.87011C11.2296 10.0679 10.8429 10.1213 10.4694 10.0224L6.76262 9.02562L6.58899 9.1432C6.51007 9.19665 4.67907 10.4768 4.3055 13.045C4.26604 13.3176 4.36338 13.5902 4.56858 13.7746L6.90468 15.8804C7.32297 16.2359 7.54922 16.7543 7.52817 17.3075C7.50713 17.8607 7.23879 18.3605 6.79419 18.6785L5.07105 19.9158C4.42915 20.3782 4.1687 21.22 4.4423 21.9656C4.83691 23.0426 5.52354 24.4937 6.54427 25.2741C6.62845 25.3382 6.72579 25.3676 6.8205 25.3676C6.95993 25.3676 7.09673 25.3035 7.1888 25.1805C7.34139 24.9748 7.30193 24.6808 7.09936 24.5258C6.44167 24.0207 5.80503 22.9945 5.30519 21.6369C5.17628 21.2895 5.29992 20.8939 5.60246 20.6748L7.3256 19.4375C8.00434 18.9484 8.41473 18.1841 8.4463 17.3396C8.4805 16.4951 8.13061 15.6987 7.50186 15.1669L5.221 13.1118C5.49197 11.4094 6.54427 10.3752 6.94414 10.0358L10.23 10.9177C10.8403 11.0807 11.4769 10.9925 12.0215 10.6692C12.5661 10.3458 12.9528 9.82468 13.1106 9.202L13.9077 5.83739C15.8861 5.1479 17.5434 5.99774 17.5724 6.01377C17.796 6.13403 18.0749 6.04584 18.1932 5.81868C18.3116 5.59152 18.2274 5.30825 18.0012 5.18799L18.0038 5.196Z" fill="#00C5CA"/><path d="M35.1164 2.99637C35.3172 2.84029 35.3563 2.55195 35.2025 2.34827C35.0512 2.14458 34.7643 2.1049 34.5635 2.26097L28.9668 6.59399C28.766 6.75006 28.7268 7.0384 28.8807 7.24209C28.9694 7.36113 29.105 7.42461 29.2432 7.42461C29.3397 7.42461 29.4362 7.39287 29.5197 7.32938L35.1164 2.99637Z" fill="#00C5CA"/><path d="M36.8393 8.43177C36.7947 8.17518 36.5558 8.00502 36.3065 8.05094L29.784 9.27175C29.5346 9.31766 29.3693 9.56345 29.4139 9.82003C29.4533 10.0469 29.6475 10.209 29.8653 10.209C29.8916 10.209 29.9205 10.209 29.9467 10.2009L36.4692 8.98005C36.7185 8.93414 36.8839 8.68835 36.8393 8.43177Z" fill="#00C5CA"/></g><defs><clipPath id="clip0_8331_18520"><rect width="59.7333" height="64" fill="white" transform="translate(0.266724)"/></clipPath></defs></svg>