<svg viewBox="0 0 32 27" fill="none" xmlns="http://www.w3.org/2000/svg">
  <path fill-rule="evenodd" clip-rule="evenodd" d="M26.6667 2.66667H5.33333C3.86057 2.66667 2.66667 3.86057 2.66667 5.33333V21.3333C2.66667 22.8061 3.86057 24 5.33333 24H26.6667C28.1394 24 29.3333 22.8061 29.3333 21.3333V5.33333C29.3333 3.86057 28.1394 2.66667 26.6667 2.66667ZM5.33333 0C2.38781 0 0 2.38781 0 5.33333V21.3333C0 24.2789 2.38782 26.6667 5.33333 26.6667H26.6667C29.6122 26.6667 32 24.2789 32 21.3333V5.33333C32 2.38781 29.6122 0 26.6667 0H5.33333ZM18.6654 10.6667C18.6654 9.93029 19.2624 9.33333 19.9988 9.33333H22.6654C23.4018 9.33333 23.9988 9.93029 23.9988 10.6667C23.9988 11.403 23.4018 12 22.6654 12H19.9988C19.2624 12 18.6654 11.403 18.6654 10.6667ZM19.9988 14.6667C19.2624 14.6667 18.6654 15.2636 18.6654 16C18.6654 16.7364 19.2624 17.3333 19.9988 17.3333H25.3321C26.0685 17.3333 26.6654 16.7364 26.6654 16C26.6654 15.2636 26.0685 14.6667 25.3321 14.6667H19.9988ZM13.2499 13.9996C13.8531 13.3624 14.2231 12.5022 14.2231 11.5556C14.2231 9.59188 12.6312 8 10.6675 8C8.70386 8 7.11198 9.59188 7.11198 11.5556C7.11198 12.5019 7.48169 13.3619 8.08455 13.999C6.5661 14.8407 5.50171 16.4019 5.35158 18.2224C5.3314 18.467 5.53232 18.6667 5.77778 18.6667H15.5556C15.801 18.6667 16.0019 18.467 15.9818 18.2224C15.8317 16.4024 14.7678 14.8415 13.2499 13.9996Z" fill="#0066CC"/>
</svg>
