<svg width="23" height="22" viewBox="0 0 23 22" fill="none" xmlns="http://www.w3.org/2000/svg">
    <path fill-rule="evenodd" clip-rule="evenodd"
        d="M9.54458 2.46335C10.4454 1.89011 11.5966 1.89011 12.4974 2.46335L19.7631 7.08699C20.0275 7.25526 20.1877 7.54694 20.1877 7.86035L20.1667 9.16635H1.83333L1.85433 7.86035C1.85433 7.54694 2.01445 7.25526 2.27886 7.08699L9.54458 2.46335ZM13.4817 0.916636C11.9803 -0.0387664 10.0617 -0.038764 8.56031 0.916638L1.29459 5.54028C0.501354 6.04506 0.0209942 6.92012 0.0209942 7.86035L0 10.083C0 10.5893 0.410406 10.9997 0.916667 10.9997H1.83333V20.1664H0.916667C0.410406 20.1664 0 20.5768 0 21.083C0 21.5893 0.410406 21.9997 0.916667 21.9997H2.75H6.41667H15.5833H19.25H21.0833C21.5896 21.9997 22 21.5893 22 21.083C22 20.5768 21.5896 20.1664 21.0833 20.1664H20.1667V10.9997H21.0833C21.5896 10.9997 22 10.5893 22 10.083L22.021 7.86035C22.021 6.92012 21.5406 6.04506 20.7474 5.54028L13.4817 0.916636ZM5.5 20.1664H3.66667V10.9997H5.5V20.1664ZM14.6667 10.9997V20.1664H7.33333V10.9997H14.6667ZM18.3333 20.1664H16.5V10.9997H18.3333V20.1664ZM12.396 5.93722C12.396 6.69661 11.7804 7.31222 11.021 7.31222C10.2616 7.31222 9.64599 6.69661 9.64599 5.93722C9.64599 5.17783 10.2616 4.56222 11.021 4.56222C11.7804 4.56222 12.396 5.17783 12.396 5.93722Z"
        fill="#BBC2D6" />
</svg>